<svg viewBox="0 0 24 24" xmlns="http://www.w3.org/2000/svg"><path d="m22.23 4.702c-.535 0-.967-.433-.967-.967 0-.535.433-.967.967-.967s.967.433.967.967c.001.534-.433.967-.967.967m-9.608 16.531c-.535 0-.967-.433-.967-.967 0-.535.433-.967.967-.967s.967.433.967.967c-.001.533-.433.967-.967.967m9.608-19.269c-.978 0-1.771.793-1.771 1.771 0 .209.053.403.119.589l-8.309 14.241c-.803.168-1.418.847-1.418 1.7 0 .978.793 1.771 1.771 1.771.977 0 1.77-.793 1.77-1.771 0-.197-.053-.376-.111-.553l8.351-14.288c.779-.187 1.37-.854 1.37-1.69-.001-.977-.794-1.77-1.772-1.77m-7.247 2.738c-.535 0-.967-.433-.967-.967 0-.535.433-.967.967-.967s.967.433.967.967-.433.967-.967.967m-9.609 16.531c-.534 0-.967-.433-.967-.967 0-.535.433-.967.967-.967.535 0 .967.433.967.967 0 .533-.433.967-.967.967m9.609-19.269c-.979 0-1.771.793-1.771 1.771 0 .209.053.403.119.589l-8.309 14.241c-.804.168-1.419.847-1.419 1.7 0 .978.793 1.771 1.771 1.771s1.771-.793 1.771-1.771c0-.197-.053-.376-.111-.553l8.351-14.288c.779-.187 1.37-.854 1.37-1.69-.001-.977-.794-1.77-1.772-1.77m-13.234 5.699c.534 0 .967.433.967.967s-.433.967-.967.967-.967-.432-.967-.966.433-.968.967-.968m0-.78c-.964 0-1.748.784-1.748 1.748s.784 1.748 1.748 1.748 1.748-.784 1.748-1.748-.784-1.748-1.748-1.748zm0 6.969c.534 0 .967.433.967.967s-.433.967-.967.967-.967-.433-.967-.967.433-.967.967-.967m0-.78c-.964 0-1.748.784-1.748 1.748s.784 1.748 1.748 1.748 1.748-.784 1.748-1.748-.784-1.748-1.748-1.748z"/></svg>