<svg height="512" width="512" xmlns="http://www.w3.org/2000/svg"><path d="m477 30h-441c-20.5024414 0-35.9994507 15.4975586-36 36v378c-.0005493 20.5028076 15.4971924 37.9993896 36 38h439c20.5028076.0005493 36.9994507-17.4971924 37-38v-378c.0005493-20.5032349-14.4967651-36-35-36zm-191.1660156 214.4248047 49.1816406 43.5166016v-132.5h40v132.5005493l49.1826172-43.5161743 26.5058594 29.9570312-95.6884766 84.6650391-95.6875-84.6660156zm-188.6489258 36.7021484-28.2841797-28.2851562 70.8344727-70.8320312-70.8344727-70.8359375 28.2841797-28.2832032 99.1186523 99.1191406zm361.8149414 151.8730469h-207v-40h207z"/></svg>